<svg xmlns="http://www.w3.org/2000/svg" viewBox="0 0 256 256">
  <title>LeetCode</title>
  <path fill="#FFA116" d="M106.1 93.3L91.4 108c-12.2 12.2-12.2 32.1 0 44.3l27.3 27.3-14.7 14.7-27.3-27.3c-20.3-20.3-20.3-53.2 0-73.5l14.7-14.7 14.7 14.7z"></path>
  <path fill="#000000" d="M134.6 64.8l-14.7 14.7 27.3 27.3c12.2 12.2 12.2 32.1 0 44.3l-14.7 14.7-14.7-14.7 14.7-14.7c4.9-4.9 4.9-12.8 0-17.7l-27.3-27.3c-9.8-9.8-9.8-25.6 0-35.4l14.7-14.7 14.7 14.7z"></path>
  <path fill="#292C33" d="M192.2 114.3c3.9 3.9 3.9 10.2 0 14.1L133.3 187.3l-14.1-14.1 58.9-58.9c3.9-3.9 10.2-3.9 14.1 0z"></path>
</svg>
